solid Exported from Blender-3.6.4
facet normal 0.000000 0.000000 1.000000
outer loop
vertex 1.000000 1.000000 1.000000
vertex -1.000000 1.000000 1.000000
vertex -1.000000 -1.000000 1.000000
endloop
endfacet
facet normal 0.000000 0.000000 1.000000
outer loop
vertex 1.000000 1.000000 1.000000
vertex -1.000000 -1.000000 1.000000
vertex 1.000000 -1.000000 1.000000
endloop
endfacet
facet normal 0.000000 -1.000000 0.000000
outer loop
vertex 1.000000 -1.000000 -1.000000
vertex 1.000000 -1.000000 1.000000
vertex -1.000000 -1.000000 1.000000
endloop
endfacet
facet normal 0.000000 -1.000000 0.000000
outer loop
vertex 1.000000 -1.000000 -1.000000
vertex -1.000000 -1.000000 1.000000
vertex -1.000000 -1.000000 -1.000000
endloop
endfacet
facet normal -1.000000 0.000000 0.000000
outer loop
vertex -1.000000 -1.000000 -1.000000
vertex -1.000000 -1.000000 1.000000
vertex -1.000000 1.000000 1.000000
endloop
endfacet
facet normal -1.000000 0.000000 0.000000
outer loop
vertex -1.000000 -1.000000 -1.000000
vertex -1.000000 1.000000 1.000000
vertex -1.000000 1.000000 -1.000000
endloop
endfacet
facet normal 0.000000 0.000000 -1.000000
outer loop
vertex -1.000000 1.000000 -1.000000
vertex 1.000000 1.000000 -1.000000
vertex 1.000000 -1.000000 -1.000000
endloop
endfacet
facet normal 0.000000 0.000000 -1.000000
outer loop
vertex -1.000000 1.000000 -1.000000
vertex 1.000000 -1.000000 -1.000000
vertex -1.000000 -1.000000 -1.000000
endloop
endfacet
facet normal 1.000000 0.000000 0.000000
outer loop
vertex 1.000000 1.000000 -1.000000
vertex 1.000000 1.000000 1.000000
vertex 1.000000 -1.000000 1.000000
endloop
endfacet
facet normal 1.000000 0.000000 0.000000
outer loop
vertex 1.000000 1.000000 -1.000000
vertex 1.000000 -1.000000 1.000000
vertex 1.000000 -1.000000 -1.000000
endloop
endfacet
facet normal 0.000000 0.000000 1.000000
outer loop
vertex 1.000000 3.613189 1.000000
vertex 1.000000 1.000000 1.000000
vertex 2.898613 1.000000 1.000000
endloop
endfacet
facet normal 0.000000 0.000000 1.000000
outer loop
vertex 1.000000 3.613189 1.000000
vertex 2.898613 1.000000 1.000000
vertex 2.898613 3.613189 1.000000
endloop
endfacet
facet normal 0.000000 0.000000 -1.000000
outer loop
vertex -1.000000 6.226377 -1.000000
vertex -3.233417 6.226377 -1.000000
vertex -3.233417 7.573231 -1.000000
endloop
endfacet
facet normal 0.000000 0.000000 -1.000000
outer loop
vertex -1.000000 6.226377 -1.000000
vertex -3.233417 7.573231 -1.000000
vertex -1.000000 7.573231 -1.000000
endloop
endfacet
facet normal 0.000000 0.000000 -1.000000
outer loop
vertex -1.000000 6.226377 -1.000000
vertex -1.000000 3.613189 -1.000000
vertex -3.233417 3.613189 -1.000000
endloop
endfacet
facet normal 0.000000 0.000000 -1.000000
outer loop
vertex -1.000000 6.226377 -1.000000
vertex -3.233417 3.613189 -1.000000
vertex -3.233417 6.226377 -1.000000
endloop
endfacet
facet normal 0.000000 0.000000 -1.000000
outer loop
vertex 1.000000 3.613189 -1.000000
vertex -1.000000 3.613189 -1.000000
vertex -1.000000 6.226377 -1.000000
endloop
endfacet
facet normal 0.000000 0.000000 -1.000000
outer loop
vertex 1.000000 3.613189 -1.000000
vertex -1.000000 6.226377 -1.000000
vertex 1.000000 6.226377 -1.000000
endloop
endfacet
facet normal 0.000000 1.000000 0.000000
outer loop
vertex 1.000000 6.226377 1.000000
vertex -1.000000 6.226377 1.000000
vertex -1.000000 6.226377 1.739587
endloop
endfacet
facet normal 0.000000 1.000000 0.000000
outer loop
vertex 1.000000 6.226377 1.000000
vertex -1.000000 6.226377 1.739587
vertex 1.000000 6.226377 1.739587
endloop
endfacet
facet normal 1.000000 0.000000 0.000000
outer loop
vertex 2.898613 3.613189 1.000000
vertex 2.898613 3.613189 -1.000000
vertex 2.898613 6.226377 -1.000000
endloop
endfacet
facet normal 1.000000 0.000000 0.000000
outer loop
vertex 2.898613 3.613189 1.000000
vertex 2.898613 6.226377 -1.000000
vertex 2.898613 6.226377 1.000000
endloop
endfacet
facet normal 0.000000 -1.000000 0.000000
outer loop
vertex 1.000000 1.000000 1.000000
vertex 1.000000 1.000000 -1.000000
vertex 2.898613 1.000000 -1.000000
endloop
endfacet
facet normal 0.000000 -1.000000 0.000000
outer loop
vertex 1.000000 1.000000 1.000000
vertex 2.898613 1.000000 -1.000000
vertex 2.898613 1.000000 1.000000
endloop
endfacet
facet normal 0.000000 0.000000 1.000000
outer loop
vertex -1.000000 6.226377 1.000000
vertex 1.000000 6.226377 1.000000
vertex 1.000000 7.573231 1.000000
endloop
endfacet
facet normal 0.000000 0.000000 1.000000
outer loop
vertex -1.000000 6.226377 1.000000
vertex 1.000000 7.573231 1.000000
vertex -1.000000 7.573231 1.000000
endloop
endfacet
facet normal 0.000000 0.000000 -1.000000
outer loop
vertex 1.000000 3.613189 -1.000000
vertex 1.000000 6.226377 -1.000000
vertex 2.898613 6.226377 -1.000000
endloop
endfacet
facet normal 0.000000 0.000000 -1.000000
outer loop
vertex 1.000000 3.613189 -1.000000
vertex 2.898613 6.226377 -1.000000
vertex 2.898613 3.613189 -1.000000
endloop
endfacet
facet normal 0.000000 0.000000 -1.000000
outer loop
vertex 1.000000 1.000000 -1.000000
vertex 1.000000 3.613189 -1.000000
vertex 2.898613 3.613189 -1.000000
endloop
endfacet
facet normal 0.000000 0.000000 -1.000000
outer loop
vertex 1.000000 1.000000 -1.000000
vertex 2.898613 3.613189 -1.000000
vertex 2.898613 1.000000 -1.000000
endloop
endfacet
facet normal 1.000000 0.000000 0.000000
outer loop
vertex 2.898613 1.000000 1.000000
vertex 2.898613 1.000000 -1.000000
vertex 2.898613 3.613189 -1.000000
endloop
endfacet
facet normal 1.000000 0.000000 0.000000
outer loop
vertex 2.898613 1.000000 1.000000
vertex 2.898613 3.613189 -1.000000
vertex 2.898613 3.613189 1.000000
endloop
endfacet
facet normal 0.000000 0.000000 1.000000
outer loop
vertex -1.000000 1.000000 1.000000
vertex 1.000000 1.000000 1.000000
vertex 1.000000 3.613189 1.000000
endloop
endfacet
facet normal 0.000000 0.000000 1.000000
outer loop
vertex -1.000000 1.000000 1.000000
vertex 1.000000 3.613189 1.000000
vertex -1.000000 3.613189 1.000000
endloop
endfacet
facet normal 0.000000 0.000000 -1.000000
outer loop
vertex 1.000000 1.000000 -1.000000
vertex -1.000000 1.000000 -1.000000
vertex -1.000000 3.613189 -1.000000
endloop
endfacet
facet normal 0.000000 0.000000 -1.000000
outer loop
vertex 1.000000 1.000000 -1.000000
vertex -1.000000 3.613189 -1.000000
vertex 1.000000 3.613189 -1.000000
endloop
endfacet
facet normal -1.000000 0.000000 0.000000
outer loop
vertex -1.000000 1.000000 -1.000000
vertex -1.000000 1.000000 1.000000
vertex -1.000000 3.613189 1.000000
endloop
endfacet
facet normal -1.000000 0.000000 0.000000
outer loop
vertex -1.000000 1.000000 -1.000000
vertex -1.000000 3.613189 1.000000
vertex -1.000000 3.613189 -1.000000
endloop
endfacet
facet normal 0.000000 0.000000 1.000000
outer loop
vertex 1.000000 6.226377 1.000000
vertex 1.000000 3.613189 1.000000
vertex 2.898613 3.613189 1.000000
endloop
endfacet
facet normal 0.000000 0.000000 1.000000
outer loop
vertex 1.000000 6.226377 1.000000
vertex 2.898613 3.613189 1.000000
vertex 2.898613 6.226377 1.000000
endloop
endfacet
facet normal 0.000000 0.000000 1.000000
outer loop
vertex -1.000000 3.613189 1.739587
vertex 1.000000 3.613189 1.739587
vertex 1.000000 6.226377 1.739587
endloop
endfacet
facet normal 0.000000 0.000000 1.000000
outer loop
vertex -1.000000 3.613189 1.739587
vertex 1.000000 6.226377 1.739587
vertex -1.000000 6.226377 1.739587
endloop
endfacet
facet normal -1.000000 0.000000 0.000000
outer loop
vertex -1.000000 6.226377 1.000000
vertex -1.000000 3.613189 1.000000
vertex -1.000000 3.613189 1.739587
endloop
endfacet
facet normal -1.000000 0.000000 0.000000
outer loop
vertex -1.000000 6.226377 1.000000
vertex -1.000000 3.613189 1.739587
vertex -1.000000 6.226377 1.739587
endloop
endfacet
facet normal 1.000000 0.000000 0.000000
outer loop
vertex 1.000000 3.613189 1.000000
vertex 1.000000 6.226377 1.000000
vertex 1.000000 6.226377 1.739587
endloop
endfacet
facet normal 1.000000 0.000000 0.000000
outer loop
vertex 1.000000 3.613189 1.000000
vertex 1.000000 6.226377 1.739587
vertex 1.000000 3.613189 1.739587
endloop
endfacet
facet normal 0.000000 -1.000000 0.000000
outer loop
vertex -1.000000 3.613189 1.000000
vertex 1.000000 3.613189 1.000000
vertex 1.000000 3.613189 1.739587
endloop
endfacet
facet normal 0.000000 -1.000000 0.000000
outer loop
vertex -1.000000 3.613189 1.000000
vertex 1.000000 3.613189 1.739587
vertex -1.000000 3.613189 1.739587
endloop
endfacet
facet normal -1.000000 0.000000 0.000000
outer loop
vertex -3.233417 3.613189 -1.000000
vertex -3.233417 3.613189 1.000000
vertex -3.233417 6.226377 1.000000
endloop
endfacet
facet normal -1.000000 0.000000 0.000000
outer loop
vertex -3.233417 3.613189 -1.000000
vertex -3.233417 6.226377 1.000000
vertex -3.233417 6.226377 -1.000000
endloop
endfacet
facet normal 0.000000 0.000000 1.000000
outer loop
vertex -1.000000 3.613189 1.000000
vertex -1.000000 6.226377 1.000000
vertex -3.233417 6.226377 1.000000
endloop
endfacet
facet normal 0.000000 0.000000 1.000000
outer loop
vertex -1.000000 3.613189 1.000000
vertex -3.233417 6.226377 1.000000
vertex -3.233417 3.613189 1.000000
endloop
endfacet
facet normal 0.000000 -1.000000 0.000000
outer loop
vertex -1.000000 3.613189 -1.000000
vertex -1.000000 3.613189 1.000000
vertex -3.233417 3.613189 1.000000
endloop
endfacet
facet normal 0.000000 -1.000000 0.000000
outer loop
vertex -1.000000 3.613189 -1.000000
vertex -3.233417 3.613189 1.000000
vertex -3.233417 3.613189 -1.000000
endloop
endfacet
facet normal -1.000000 0.000000 0.000000
outer loop
vertex -3.233417 6.226377 -1.000000
vertex -3.233417 6.226377 1.000000
vertex -3.233417 7.573231 1.000000
endloop
endfacet
facet normal -1.000000 0.000000 0.000000
outer loop
vertex -3.233417 6.226377 -1.000000
vertex -3.233417 7.573231 1.000000
vertex -3.233417 7.573231 -1.000000
endloop
endfacet
facet normal 0.000000 1.000000 0.000000
outer loop
vertex -1.000000 7.573231 -1.000000
vertex -1.000000 7.573231 1.000000
vertex 1.000000 7.573231 1.000000
endloop
endfacet
facet normal 0.000000 1.000000 0.000000
outer loop
vertex -1.000000 7.573231 -1.000000
vertex 1.000000 7.573231 1.000000
vertex 1.000000 7.573231 -1.000000
endloop
endfacet
facet normal 0.000000 0.000000 1.000000
outer loop
vertex 1.000000 7.573231 1.000000
vertex 2.898613 7.573231 1.000000
vertex 2.898613 12.474690 1.000000
endloop
endfacet
facet normal 0.000000 0.000000 1.000000
outer loop
vertex 1.000000 7.573231 1.000000
vertex 2.898613 12.474690 1.000000
vertex 1.000000 12.474690 1.000000
endloop
endfacet
facet normal -1.000000 0.000000 0.000000
outer loop
vertex -3.233417 7.573231 -1.000000
vertex -3.233417 7.573231 1.000000
vertex -3.233417 9.611257 1.000000
endloop
endfacet
facet normal -1.000000 0.000000 0.000000
outer loop
vertex -3.233417 7.573231 -1.000000
vertex -3.233417 9.611257 1.000000
vertex -3.233417 9.611257 -1.000000
endloop
endfacet
facet normal 0.000000 0.000000 -1.000000
outer loop
vertex 2.898613 6.226377 -1.000000
vertex 1.000000 6.226377 -1.000000
vertex 1.000000 7.573231 -1.000000
endloop
endfacet
facet normal 0.000000 0.000000 -1.000000
outer loop
vertex 2.898613 6.226377 -1.000000
vertex 1.000000 7.573231 -1.000000
vertex 2.898613 7.573231 -1.000000
endloop
endfacet
facet normal 0.000000 0.000000 1.000000
outer loop
vertex 1.000000 6.226377 1.000000
vertex 2.898613 6.226377 1.000000
vertex 2.898613 7.573231 1.000000
endloop
endfacet
facet normal 0.000000 0.000000 1.000000
outer loop
vertex 1.000000 6.226377 1.000000
vertex 2.898613 7.573231 1.000000
vertex 1.000000 7.573231 1.000000
endloop
endfacet
facet normal 0.000000 0.000000 -1.000000
outer loop
vertex 1.000000 6.226377 -1.000000
vertex -1.000000 6.226377 -1.000000
vertex -1.000000 7.573231 -1.000000
endloop
endfacet
facet normal 0.000000 0.000000 -1.000000
outer loop
vertex 1.000000 6.226377 -1.000000
vertex -1.000000 7.573231 -1.000000
vertex 1.000000 7.573231 -1.000000
endloop
endfacet
facet normal 0.000000 0.000000 1.000000
outer loop
vertex -3.233417 6.226377 1.000000
vertex -1.000000 6.226377 1.000000
vertex -1.000000 7.573231 1.000000
endloop
endfacet
facet normal 0.000000 0.000000 1.000000
outer loop
vertex -3.233417 6.226377 1.000000
vertex -1.000000 7.573231 1.000000
vertex -3.233417 7.573231 1.000000
endloop
endfacet
facet normal 1.000000 0.000000 0.000000
outer loop
vertex 2.898613 6.226377 1.000000
vertex 2.898613 6.226377 -1.000000
vertex 2.898613 7.573231 -1.000000
endloop
endfacet
facet normal 1.000000 0.000000 0.000000
outer loop
vertex 2.898613 6.226377 1.000000
vertex 2.898613 7.573231 -1.000000
vertex 2.898613 7.573231 1.000000
endloop
endfacet
facet normal 0.000000 1.000000 0.000000
outer loop
vertex -1.000000 9.611257 1.000000
vertex -1.000000 9.611257 -1.000000
vertex -3.233417 9.611257 -1.000000
endloop
endfacet
facet normal 0.000000 1.000000 0.000000
outer loop
vertex -1.000000 9.611257 1.000000
vertex -3.233417 9.611257 -1.000000
vertex -3.233417 9.611257 1.000000
endloop
endfacet
facet normal 0.000000 0.000000 -1.000000
outer loop
vertex -1.000000 7.573231 -1.000000
vertex -3.233417 7.573231 -1.000000
vertex -3.233417 9.611257 -1.000000
endloop
endfacet
facet normal 0.000000 0.000000 -1.000000
outer loop
vertex -1.000000 7.573231 -1.000000
vertex -3.233417 9.611257 -1.000000
vertex -1.000000 9.611257 -1.000000
endloop
endfacet
facet normal 1.000000 0.000000 0.000000
outer loop
vertex -1.000000 7.573231 1.000000
vertex -1.000000 7.573231 -1.000000
vertex -1.000000 9.611257 -1.000000
endloop
endfacet
facet normal 1.000000 0.000000 0.000000
outer loop
vertex -1.000000 7.573231 1.000000
vertex -1.000000 9.611257 -1.000000
vertex -1.000000 9.611257 1.000000
endloop
endfacet
facet normal 0.000000 0.000000 1.000000
outer loop
vertex -3.233417 7.573231 1.000000
vertex -1.000000 7.573231 1.000000
vertex -1.000000 9.611257 1.000000
endloop
endfacet
facet normal 0.000000 0.000000 1.000000
outer loop
vertex -3.233417 7.573231 1.000000
vertex -1.000000 9.611257 1.000000
vertex -3.233417 9.611257 1.000000
endloop
endfacet
facet normal 0.000000 1.000000 0.000000
outer loop
vertex 1.000000 12.474690 -1.000000
vertex 1.000000 12.474690 1.000000
vertex 2.898613 12.474690 1.000000
endloop
endfacet
facet normal 0.000000 1.000000 0.000000
outer loop
vertex 1.000000 12.474690 -1.000000
vertex 2.898613 12.474690 1.000000
vertex 2.898613 12.474690 -1.000000
endloop
endfacet
facet normal -1.000000 0.000000 0.000000
outer loop
vertex 1.000000 7.573231 -1.000000
vertex 1.000000 7.573231 1.000000
vertex 1.000000 12.474690 1.000000
endloop
endfacet
facet normal -1.000000 0.000000 0.000000
outer loop
vertex 1.000000 7.573231 -1.000000
vertex 1.000000 12.474690 1.000000
vertex 1.000000 12.474690 -1.000000
endloop
endfacet
facet normal 0.000000 0.000000 -1.000000
outer loop
vertex 2.898613 7.573231 -1.000000
vertex 1.000000 7.573231 -1.000000
vertex 1.000000 12.474690 -1.000000
endloop
endfacet
facet normal 0.000000 0.000000 -1.000000
outer loop
vertex 2.898613 7.573231 -1.000000
vertex 1.000000 12.474690 -1.000000
vertex 2.898613 12.474690 -1.000000
endloop
endfacet
facet normal 1.000000 0.000000 0.000000
outer loop
vertex 2.898613 7.573231 1.000000
vertex 2.898613 7.573231 -1.000000
vertex 2.898613 12.474690 -1.000000
endloop
endfacet
facet normal 1.000000 0.000000 0.000000
outer loop
vertex 2.898613 7.573231 1.000000
vertex 2.898613 12.474690 -1.000000
vertex 2.898613 12.474690 1.000000
endloop
endfacet
facet normal -1.000000 0.000000 0.000000
outer loop
vertex 0.216690 1.934594 0.378370
vertex 0.216690 1.934594 2.378370
vertex 0.216690 3.934594 2.378370
endloop
endfacet
facet normal -1.000000 0.000000 0.000000
outer loop
vertex 0.216690 1.934594 0.378370
vertex 0.216690 3.934594 2.378370
vertex 0.216690 3.934594 0.378370
endloop
endfacet
facet normal 0.000000 1.000000 0.000000
outer loop
vertex 0.216690 3.934594 0.378370
vertex 0.216690 3.934594 2.378370
vertex 2.216691 3.934594 2.378370
endloop
endfacet
facet normal 0.000000 1.000000 0.000000
outer loop
vertex 0.216690 3.934594 0.378370
vertex 2.216691 3.934594 2.378370
vertex 2.216691 3.934594 0.378370
endloop
endfacet
facet normal 1.000000 0.000000 0.000000
outer loop
vertex 2.216691 3.934594 0.378370
vertex 2.216691 3.934594 2.378370
vertex 2.216691 1.934594 2.378370
endloop
endfacet
facet normal 1.000000 0.000000 0.000000
outer loop
vertex 2.216691 3.934594 0.378370
vertex 2.216691 1.934594 2.378370
vertex 2.216691 1.934594 0.378370
endloop
endfacet
facet normal 0.000000 -1.000000 0.000000
outer loop
vertex 2.216691 1.934594 0.378370
vertex 2.216691 1.934594 2.378370
vertex 0.216690 1.934594 2.378370
endloop
endfacet
facet normal 0.000000 -1.000000 0.000000
outer loop
vertex 2.216691 1.934594 0.378370
vertex 0.216690 1.934594 2.378370
vertex 0.216690 1.934594 0.378370
endloop
endfacet
facet normal 0.000000 0.000000 -1.000000
outer loop
vertex 0.216690 3.934594 0.378370
vertex 2.216691 3.934594 0.378370
vertex 2.216691 1.934594 0.378370
endloop
endfacet
facet normal 0.000000 0.000000 -1.000000
outer loop
vertex 0.216690 3.934594 0.378370
vertex 2.216691 1.934594 0.378370
vertex 0.216690 1.934594 0.378370
endloop
endfacet
facet normal 0.000000 0.000000 1.000000
outer loop
vertex 2.216691 3.934594 2.378370
vertex 0.216690 3.934594 2.378370
vertex 0.216690 1.934594 2.378370
endloop
endfacet
facet normal 0.000000 0.000000 1.000000
outer loop
vertex 2.216691 3.934594 2.378370
vertex 0.216690 1.934594 2.378370
vertex 2.216691 1.934594 2.378370
endloop
endfacet
endsolid Exported from Blender-3.6.4
