# Blender 3.6.4
# www.blender.org
o Cube
v 1.000000 1.000000 -1.000000
v 1.000000 -1.000000 -1.000000
v 1.000000 1.000000 1.000000
v 1.000000 -1.000000 1.000000
v -1.000000 1.000000 -1.000000
v -1.000000 -1.000000 -1.000000
v -1.000000 1.000000 1.000000
v -1.000000 -1.000000 1.000000
v 1.000000 -1.000000 -6.226377
v -1.000000 -1.000000 -6.226377
v 1.000000 1.000000 -6.226377
v -1.000000 1.000000 -6.226377
v 2.898613 1.000000 -1.000000
v 2.898613 -1.000000 -1.000000
v 2.898613 1.000000 -6.226377
v 2.898613 -1.000000 -6.226377
v 1.000000 -1.000000 -3.613189
v 1.000000 1.000000 -3.613189
v -1.000000 1.000000 -3.613189
v -1.000000 -1.000000 -3.613189
v 2.898613 -1.000000 -3.613189
v 2.898613 1.000000 -3.613189
v -1.000000 1.739587 -6.226377
v 1.000000 1.739587 -6.226377
v -1.000000 1.739587 -3.613189
v 1.000000 1.739587 -3.613189
v -3.233417 1.000000 -6.226377
v -3.233417 -1.000000 -6.226377
v -3.233417 1.000000 -3.613189
v -3.233417 -1.000000 -3.613189
v 1.000000 -1.000000 -7.573231
v -1.000000 -1.000000 -7.573231
v 1.000000 1.000000 -7.573231
v -1.000000 1.000000 -7.573231
v 2.898613 1.000000 -7.573231
v 2.898613 -1.000000 -7.573231
v -3.233417 1.000000 -7.573231
v -3.233417 -1.000000 -7.573231
v -1.000000 1.000000 -9.611257
v -1.000000 -1.000000 -9.611257
v -3.233417 1.000000 -9.611257
v -3.233417 -1.000000 -9.611257
v 1.000000 1.000000 -12.474690
v 1.000000 -1.000000 -12.474690
v 2.898613 1.000000 -12.474690
v 2.898613 -1.000000 -12.474690
v 0.216690 0.378370 -1.934594
v 0.216690 2.378370 -1.934594
v 0.216690 0.378370 -3.934594
v 0.216690 2.378370 -3.934594
v 2.216691 0.378370 -1.934594
v 2.216691 2.378370 -1.934594
v 2.216691 0.378370 -3.934594
v 2.216691 2.378370 -3.934594
vn -0.0000 1.0000 -0.0000
vn -0.0000 -0.0000 1.0000
vn -1.0000 -0.0000 -0.0000
vn -0.0000 -1.0000 -0.0000
vn 1.0000 -0.0000 -0.0000
vn -0.0000 -0.0000 -1.0000
vt 0.625000 0.500000
vt 0.875000 0.500000
vt 0.875000 0.750000
vt 0.625000 0.750000
vt 0.375000 0.750000
vt 0.625000 1.000000
vt 0.375000 1.000000
vt 0.375000 0.000000
vt 0.625000 0.000000
vt 0.625000 0.250000
vt 0.375000 0.250000
vt 0.125000 0.500000
vt 0.375000 0.500000
vt 0.125000 0.750000
s 0
f 1/1/1 5/2/1 7/3/1 3/4/1
f 4/5/2 3/4/2 7/6/2 8/7/2
f 8/8/3 7/9/3 5/10/3 6/11/3
f 6/12/4 2/13/4 4/5/4 8/14/4
f 2/13/5 1/1/5 3/4/5 4/5/5
f 18/1/1 1/1/1 13/1/1 22/1/1
f 10/12/4 28/12/4 38/12/4 32/12/4
f 10/12/4 20/12/4 30/12/4 28/12/4
f 17/13/4 20/12/4 10/12/4 9/13/4
f 11/1/6 12/10/6 23/10/6 24/1/6
f 22/1/5 21/13/5 16/13/5 15/1/5
f 1/1/2 2/13/2 14/13/2 13/1/2
f 12/10/1 11/1/1 33/1/1 34/10/1
f 17/13/4 9/13/4 16/13/4 21/13/4
f 2/13/4 17/13/4 21/13/4 14/13/4
f 13/1/5 14/13/5 21/13/5 22/1/5
f 5/2/1 1/1/1 18/1/1 19/2/1
f 2/13/4 6/12/4 20/12/4 17/13/4
f 6/11/3 5/10/3 19/10/3 20/11/3
f 11/1/1 18/1/1 22/1/1 15/1/1
f 25/2/1 26/1/1 24/1/1 23/2/1
f 12/10/3 19/10/3 25/10/3 23/10/3
f 18/1/5 11/1/5 24/1/5 26/1/5
f 19/2/2 18/1/2 26/1/2 25/2/2
f 30/11/3 29/10/3 27/10/3 28/11/3
f 19/10/1 12/10/1 27/10/1 29/10/1
f 20/11/2 19/10/2 29/10/2 30/11/2
f 28/11/3 27/10/3 37/10/3 38/11/3
f 32/11/6 34/10/6 33/1/6 31/13/6
f 33/1/1 35/1/1 45/1/1 43/1/1
f 38/11/3 37/10/3 41/10/3 42/11/3
f 16/13/4 9/13/4 31/13/4 36/13/4
f 11/1/1 15/1/1 35/1/1 33/1/1
f 9/13/4 10/12/4 32/12/4 31/13/4
f 27/10/1 12/10/1 34/10/1 37/10/1
f 15/1/5 16/13/5 36/13/5 35/1/5
f 39/10/6 40/11/6 42/11/6 41/10/6
f 32/12/4 38/12/4 42/12/4 40/12/4
f 34/10/5 32/11/5 40/11/5 39/10/5
f 37/10/1 34/10/1 39/10/1 41/10/1
f 44/13/6 43/1/6 45/1/6 46/13/6
f 31/13/3 33/1/3 43/1/3 44/13/3
f 36/13/4 31/13/4 44/13/4 46/13/4
f 35/1/5 36/13/5 46/13/5 45/1/5
f 47/8/3 48/9/3 50/10/3 49/11/3
f 49/11/6 50/10/6 54/1/6 53/13/6
f 53/13/5 54/1/5 52/4/5 51/5/5
f 51/5/2 52/4/2 48/6/2 47/7/2
f 49/12/4 53/13/4 51/5/4 47/14/4
f 54/1/1 50/2/1 48/3/1 52/4/1
