# Blender 3.6.4
# www.blender.org
o Cube
v 1.000000 1.000000 -1.000000
v 1.000000 -1.000000 -1.000000
v 1.000000 1.000000 1.000000
v 1.000000 -1.000000 1.000000
v -1.000000 1.000000 -1.000000
v -1.000000 -1.000000 -1.000000
v -1.000000 1.000000 1.000000
v -1.000000 -1.000000 1.000000
v 1.000000 -1.000000 -6.226377
v -1.000000 -1.000000 -6.226377
v 1.000000 1.000000 -6.226377
v -1.000000 1.000000 -6.226377
v 2.898613 1.000000 -1.000000
v 2.898613 -1.000000 -1.000000
v 2.898613 1.000000 -6.226377
v 2.898613 -1.000000 -6.226377
v 1.000000 -1.000000 -3.613189
v 1.000000 1.000000 -3.613189
v -1.000000 1.000000 -3.613189
v -1.000000 -1.000000 -3.613189
v 2.898613 -1.000000 -3.613189
v 2.898613 1.000000 -3.613189
v -1.000000 1.739587 -6.226377
v 1.000000 1.739587 -6.226377
v -1.000000 1.739587 -3.613189
v 1.000000 1.739587 -3.613189
v -3.233417 1.000000 -6.226377
v -3.233417 -1.000000 -6.226377
v -3.233417 1.000000 -3.613189
v -3.233417 -1.000000 -3.613189
v 1.000000 -1.000000 -7.573231
v -1.000000 -1.000000 -7.573231
v 1.000000 1.000000 -7.573231
v -1.000000 1.000000 -7.573231
v 2.898613 1.000000 -7.573231
v 2.898613 -1.000000 -7.573231
v -3.233417 1.000000 -7.573231
v -3.233417 -1.000000 -7.573231
v -1.000000 1.000000 -9.611257
v -1.000000 -1.000000 -9.611257
v -3.233417 1.000000 -9.611257
v -3.233417 -1.000000 -9.611257
v 1.000000 1.000000 -12.474690
v 1.000000 -1.000000 -12.474690
v 2.898613 1.000000 -12.474690
v 2.898613 -1.000000 -12.474690
v 0.216690 0.378370 -1.934594
v 0.216690 2.378370 -1.934594
v 0.216690 0.378370 -3.934594
v 0.216690 2.378370 -3.934594
v 2.216691 0.378370 -1.934594
v 2.216691 2.378370 -1.934594
v 2.216691 0.378370 -3.934594
v 2.216691 2.378370 -3.934594
vn -0.0000 1.0000 -0.0000
vn -0.0000 -0.0000 1.0000
vn -1.0000 -0.0000 -0.0000
vn -0.0000 -1.0000 -0.0000
vn 1.0000 -0.0000 -0.0000
vn -0.0000 -0.0000 -1.0000
vt 0.875000 0.500000
vt 0.625000 0.750000
vt 0.625000 0.500000
vt 0.375000 1.000000
vt 0.375000 0.750000
vt 0.625000 0.000000
vt 0.375000 0.250000
vt 0.375000 0.000000
vt 0.375000 0.500000
vt 0.125000 0.750000
vt 0.125000 0.500000
vt 0.625000 0.250000
vt 0.875000 0.750000
vt 0.625000 1.000000
s 0
f 5/1/1 3/2/1 1/3/1
f 3/2/2 8/4/2 4/5/2
f 7/6/3 6/7/3 8/8/3
f 2/9/4 8/10/4 6/11/4
f 1/3/5 4/5/5 2/9/5
f 1/3/1 22/3/1 18/3/1
f 28/11/4 32/11/4 10/11/4
f 20/11/4 28/11/4 10/11/4
f 20/11/4 9/9/4 17/9/4
f 12/12/6 24/3/6 11/3/6
f 21/9/5 15/3/5 22/3/5
f 2/9/2 13/3/2 1/3/2
f 11/3/1 34/12/1 12/12/1
f 9/9/4 21/9/4 17/9/4
f 17/9/4 14/9/4 2/9/4
f 14/9/5 22/3/5 13/3/5
f 1/3/1 19/1/1 5/1/1
f 6/11/4 17/9/4 2/9/4
f 5/12/3 20/7/3 6/7/3
f 18/3/1 15/3/1 11/3/1
f 26/3/1 23/1/1 25/1/1
f 19/12/3 23/12/3 12/12/3
f 11/3/5 26/3/5 18/3/5
f 18/3/2 25/1/2 19/1/2
f 29/12/3 28/7/3 30/7/3
f 12/12/1 29/12/1 19/12/1
f 19/12/2 30/7/2 20/7/2
f 27/12/3 38/7/3 28/7/3
f 34/12/6 31/9/6 32/7/6
f 35/3/1 43/3/1 33/3/1
f 37/12/3 42/7/3 38/7/3
f 9/9/4 36/9/4 16/9/4
f 15/3/1 33/3/1 11/3/1
f 10/11/4 31/9/4 9/9/4
f 12/12/1 37/12/1 27/12/1
f 16/9/5 35/3/5 15/3/5
f 40/7/6 41/12/6 39/12/6
f 38/11/4 40/11/4 32/11/4
f 32/7/5 39/12/5 34/12/5
f 34/12/1 41/12/1 37/12/1
f 43/3/6 46/9/6 44/9/6
f 33/3/3 44/9/3 31/9/3
f 31/9/4 46/9/4 36/9/4
f 36/9/5 45/3/5 35/3/5
f 48/6/3 49/7/3 47/8/3
f 50/12/6 53/9/6 49/7/6
f 54/3/5 51/5/5 53/9/5
f 52/2/2 47/4/2 51/5/2
f 53/9/4 47/10/4 49/11/4
f 50/1/1 52/2/1 54/3/1
f 5/1/1 7/13/1 3/2/1
f 3/2/2 7/14/2 8/4/2
f 7/6/3 5/12/3 6/7/3
f 2/9/4 4/5/4 8/10/4
f 1/3/5 3/2/5 4/5/5
f 1/3/1 13/3/1 22/3/1
f 28/11/4 38/11/4 32/11/4
f 20/11/4 30/11/4 28/11/4
f 20/11/4 10/11/4 9/9/4
f 12/12/6 23/12/6 24/3/6
f 21/9/5 16/9/5 15/3/5
f 2/9/2 14/9/2 13/3/2
f 11/3/1 33/3/1 34/12/1
f 9/9/4 16/9/4 21/9/4
f 17/9/4 21/9/4 14/9/4
f 14/9/5 21/9/5 22/3/5
f 1/3/1 18/3/1 19/1/1
f 6/11/4 20/11/4 17/9/4
f 5/12/3 19/12/3 20/7/3
f 18/3/1 22/3/1 15/3/1
f 26/3/1 24/3/1 23/1/1
f 19/12/3 25/12/3 23/12/3
f 11/3/5 24/3/5 26/3/5
f 18/3/2 26/3/2 25/1/2
f 29/12/3 27/12/3 28/7/3
f 12/12/1 27/12/1 29/12/1
f 19/12/2 29/12/2 30/7/2
f 27/12/3 37/12/3 38/7/3
f 34/12/6 33/3/6 31/9/6
f 35/3/1 45/3/1 43/3/1
f 37/12/3 41/12/3 42/7/3
f 9/9/4 31/9/4 36/9/4
f 15/3/1 35/3/1 33/3/1
f 10/11/4 32/11/4 31/9/4
f 12/12/1 34/12/1 37/12/1
f 16/9/5 36/9/5 35/3/5
f 40/7/6 42/7/6 41/12/6
f 38/11/4 42/11/4 40/11/4
f 32/7/5 40/7/5 39/12/5
f 34/12/1 39/12/1 41/12/1
f 43/3/6 45/3/6 46/9/6
f 33/3/3 43/3/3 44/9/3
f 31/9/4 44/9/4 46/9/4
f 36/9/5 46/9/5 45/3/5
f 48/6/3 50/12/3 49/7/3
f 50/12/6 54/3/6 53/9/6
f 54/3/5 52/2/5 51/5/5
f 52/2/2 48/14/2 47/4/2
f 53/9/4 51/5/4 47/10/4
f 50/1/1 48/13/1 52/2/1
